<svg xmlns="http://www.w3.org/2000/svg" viewBox="0 0 379.57 145.86"><defs><style>.cls-1{fill:#f2ea60;}.cls-2{fill:#ec6542;}.cls-3{fill:#6fb395;}.cls-4{fill:#a7cfbb;}.cls-5{fill:#ec3627;}.cls-6{fill:#fff;}</style></defs><g id="Lifebox_Icon" data-name="Lifebox Icon"><polyline id="Lifebox_Yellow" data-name="Lifebox Yellow" class="cls-1" points="312.45 96.73 270.34 54.58 312.33 12.6 354.44 54.76 312.45 96.73"/><polyline id="Lifebox_Light_Red" data-name="Lifebox Light Red" class="cls-2" points="354.44 54.76 312.33 12.6 324.76 0 379.27 54.75 354.44 54.76"/><polygon id="Lifebox_Dark_Green" data-name="Lifebox Dark Green" class="cls-3" points="354.44 54.75 379.27 54.75 324.87 109.15 312.45 96.73 354.44 54.75 354.44 54.75"/><polyline id="Lifebox_Light_Green" data-name="Lifebox Light Green" class="cls-4" points="270.34 54.58 312.33 12.6 299.91 0.18 245.5 54.58 270.34 54.58"/><polygon id="Lifebox_Red" data-name="Lifebox Red" class="cls-5" points="312.33 12.6 299.91 0.18 324.76 0 312.33 12.6"/></g><g id="Lifebox_Logo" data-name="Lifebox Logo"><polyline id="X2" class="cls-6" points="324.91 109.15 300.08 109.15 245.5 54.58 270.34 54.58 324.91 109.15"/><polyline id="X1" class="cls-6" points="243.84 109.15 268.67 109.15 323.24 54.58 298.41 54.58 243.84 109.15"/><rect id="L" class="cls-6" x="0.66" y="33.19" width="16.3" height="76.05"/><path id="I" class="cls-6" d="M25.72,36.08H42V51.82H25.72Zm0,20.84H42v56.31H25.72Z" transform="translate(-0.67 -3.99)"/><path id="F" class="cls-6" d="M72.39,113.23H56.09V71H49.55V58.36h6.54c0-4.88-.22-10.76,2.55-15,3.77-5.65,11.2-7.87,17.63-7.31l7.54.66V49.27l-5.55-.34c-5.87-.33-5.87,3.44-5.87,8.21v1.22h10V71h-10v42.23" transform="translate(-0.67 -3.99)"/><path id="E" class="cls-6" d="M102.09,87.85,102,90.62c0,6.65,3.77,12.08,10.87,12.08,5,0,10-3.66,10-8.87l15.07,1.11c0,2.77-6.54,19.4-25.61,19.4-16.85,0-27.82-11.75-27.82-28.49s9.87-30,27.38-30c7.87,0,16,3.54,20.62,10s5.87,14.41,5.76,22.06H102.09m19.85-9.65c-.33-6.1-2.33-11.75-9.42-11.75s-10,5.32-10.54,11.75Z" transform="translate(-0.67 -3.99)"/><path id="B" class="cls-6" d="M143.33,37.18h16.29V64h.45c2.77-5.54,7.42-8.2,13.74-8.2,16.08,0,21,16,21,29.26,0,14.75-5.88,29.27-22.84,29.27-8.09,0-12-3-16.08-9.76-2,2.44-2.65,5.66-3.65,8.65h-8.87V37.18m16.52,52.44c0,3.1.11,6.65,1.88,9.42a7.86,7.86,0,0,0,6.87,3.88c9.2,0,9.2-11.75,9.2-17.85,0-6.32,0-18.07-9-18.07-7.87,0-9,8.54-9,14.53Z" transform="translate(-0.67 -3.99)"/><path id="O" class="cls-6" d="M251.63,85.52c0,16.07-10.53,28.82-27.16,28.82-17.29,0-26.72-13.08-26.72-29.38s9.54-29.15,26.72-29.15c17.63,0,27.16,13.08,27.16,29.71M215.27,83.3c0,6.43-.11,20.18,9.2,20.18s9.65-11.09,9.65-17.85c0-4.44-.23-9.76-1.78-14-1.33-3.66-4-5.1-7.76-5.1-8.75,0-9.31,10.31-9.31,16.74" transform="translate(-0.67 -3.99)"/></g><g id="Lifebox_Strapline" data-name="Lifebox Strapline"><path class="cls-6" d="M10.65,130.33a6.41,6.41,0,0,1,2.49,2.32l-1.86,1.67a4.65,4.65,0,0,0-1.6-2,4.72,4.72,0,0,0-2.57-.61,4.13,4.13,0,0,0-2.45.63A1.9,1.9,0,0,0,3.79,134a1.65,1.65,0,0,0,.85,1.46,9.07,9.07,0,0,0,3,.92,13.91,13.91,0,0,1,3.24.93,4.12,4.12,0,0,1,1.76,1.4,4.07,4.07,0,0,1-.21,4.41,4.75,4.75,0,0,1-2.12,1.55,8.52,8.52,0,0,1-3.15.54c-3.07,0-5.24-1-6.51-3.07l1.72-1.72a4.79,4.79,0,0,0,1.89,2,5.84,5.84,0,0,0,2.88.65,4.87,4.87,0,0,0,2.55-.57,1.75,1.75,0,0,0,.93-1.59,1.51,1.51,0,0,0-.84-1.33,9.65,9.65,0,0,0-2.92-.89,14.42,14.42,0,0,1-3.32-1,4.23,4.23,0,0,1-1.8-1.42,3.72,3.72,0,0,1-.56-2.07,4.1,4.1,0,0,1,.71-2.33A4.79,4.79,0,0,1,4,130.19a7.44,7.44,0,0,1,3.13-.62A7.77,7.77,0,0,1,10.65,130.33Z" transform="translate(-0.67 -3.99)"/><path class="cls-6" d="M26.87,143.23l-.16,1.65a3.4,3.4,0,0,1-1.42.28,2.76,2.76,0,0,1-1.57-.39,1.94,1.94,0,0,1-.77-1.31,3.4,3.4,0,0,1-1.56,1.25,5.75,5.75,0,0,1-2.32.45,4.37,4.37,0,0,1-2.7-.78,2.62,2.62,0,0,1-1-2.23,2.82,2.82,0,0,1,1.12-2.27,7.19,7.19,0,0,1,3.35-1.32l2.91-.51v-.62a2.24,2.24,0,0,0-.62-1.66,2.37,2.37,0,0,0-1.72-.6,2.83,2.83,0,0,0-3,2.06l-1.9-1A3.84,3.84,0,0,1,17.21,134a5.76,5.76,0,0,1,3.12-.8,5.51,5.51,0,0,1,3.53,1,3.61,3.61,0,0,1,1.31,3v5.18a.91.91,0,0,0,.2.64.84.84,0,0,0,.65.2A3.46,3.46,0,0,0,26.87,143.23Zm-5.09-.52a1.81,1.81,0,0,0,.94-1.59v-1.37l-2.5.5a4.57,4.57,0,0,0-1.76.65,1.27,1.27,0,0,0-.58,1.09,1.14,1.14,0,0,0,.45,1,2.11,2.11,0,0,0,1.27.33A4,4,0,0,0,21.78,142.71Z" transform="translate(-0.67 -3.99)"/><path class="cls-6" d="M38.9,133.47l-4.56,11.46H31.66l-4.59-11.46h2.71L33,142.93l3.32-9.46Z" transform="translate(-0.67 -3.99)"/><path class="cls-6" d="M41,131.14a1.45,1.45,0,0,1-.44-1.13,1.42,1.42,0,0,1,.44-1.12,1.74,1.74,0,0,1,1.21-.39,1.7,1.7,0,0,1,1.2.39,1.42,1.42,0,0,1,.43,1.12,1.44,1.44,0,0,1-.43,1.13,1.66,1.66,0,0,1-1.2.4A1.7,1.7,0,0,1,41,131.14Zm2.43,13.79H41V133.47h2.46Z" transform="translate(-0.67 -3.99)"/><path class="cls-6" d="M56.53,134.34a4.07,4.07,0,0,1,1.2,3.16v7.43H55.28v-6.65c0-2-.81-3-2.45-3a3.06,3.06,0,0,0-2.2.88,3.61,3.61,0,0,0-.92,2.71v6.08H47.26V133.47h2.18l.11,1.9a3.75,3.75,0,0,1,1.58-1.6,4.93,4.93,0,0,1,2.3-.53A4.43,4.43,0,0,1,56.53,134.34Z" transform="translate(-0.67 -3.99)"/><path class="cls-6" d="M70.82,143.92a2.62,2.62,0,0,1,1,2.15,2.92,2.92,0,0,1-.76,2,5,5,0,0,1-2.11,1.31,9.49,9.49,0,0,1-3,.45,8.21,8.21,0,0,1-4.09-.8,2.39,2.39,0,0,1-1.36-2.13,1.94,1.94,0,0,1,.54-1.36,3,3,0,0,1,1.5-.84,3.22,3.22,0,0,1-1.17-.88,2,2,0,0,1-.44-1.3,2.32,2.32,0,0,1,1.79-2.29,3.44,3.44,0,0,1-1.32-1.3,3.82,3.82,0,0,1-.44-1.84,3.36,3.36,0,0,1,.62-2,3.92,3.92,0,0,1,1.75-1.37,6.62,6.62,0,0,1,2.6-.48,6.93,6.93,0,0,1,2.32.37,3.39,3.39,0,0,1,1.15-1.92,3.47,3.47,0,0,1,2.21-.63L72,133a4.14,4.14,0,0,0-1.78.27,1.73,1.73,0,0,0-.93.89,3.68,3.68,0,0,1,1.17,1.29,3.41,3.41,0,0,1,.41,1.69,3.37,3.37,0,0,1-1.36,2.82A5.7,5.7,0,0,1,65.87,141a7.89,7.89,0,0,1-1.9-.21,1.54,1.54,0,0,0-.84.45,1.21,1.21,0,0,0-.26.81.94.94,0,0,0,.38.81,1.63,1.63,0,0,0,1,.29h3.83A4.17,4.17,0,0,1,70.82,143.92Zm-2.09,3.62c.63-.32.94-.72.94-1.19a1,1,0,0,0-.45-.87,3,3,0,0,0-1.54-.3H64.59a3,3,0,0,0-1.55.32,1,1,0,0,0-.52.9,1.34,1.34,0,0,0,.91,1.2,6.64,6.64,0,0,0,2.69.42A5.79,5.79,0,0,0,68.73,147.54Zm-4.62-12a2.06,2.06,0,0,0,0,3.11,2.87,2.87,0,0,0,3.54,0,2,2,0,0,0,.7-1.57,1.94,1.94,0,0,0-.7-1.55,2.64,2.64,0,0,0-1.78-.6A2.58,2.58,0,0,0,64.11,135.57Z" transform="translate(-0.67 -3.99)"/><path class="cls-6" d="M84,141.58a2,2,0,0,0,.26,1.18,1.11,1.11,0,0,0,.94.34,4,4,0,0,0,.74-.06,4.6,4.6,0,0,0,.77-.24l-.28,2a4.21,4.21,0,0,1-1.9.39,3,3,0,0,1-2.26-.78,3.53,3.53,0,0,1-.72-2.45V128.31H84Z" transform="translate(-0.67 -3.99)"/><path class="cls-6" d="M88.76,131.14a1.44,1.44,0,0,1-.43-1.13,1.42,1.42,0,0,1,.43-1.12A1.77,1.77,0,0,1,90,128.5a1.7,1.7,0,0,1,1.2.39,1.45,1.45,0,0,1,.43,1.12,1.48,1.48,0,0,1-.43,1.13,1.66,1.66,0,0,1-1.2.4A1.73,1.73,0,0,1,88.76,131.14Zm2.43,13.79H88.74V133.47h2.45Z" transform="translate(-0.67 -3.99)"/><path class="cls-6" d="M105.13,133.47l-4.56,11.46H97.88L93.3,133.47H96l3.23,9.46,3.32-9.46Z" transform="translate(-0.67 -3.99)"/><path class="cls-6" d="M117.3,140.12h-8.39a3.69,3.69,0,0,0,1.07,2.3,3.2,3.2,0,0,0,2.25.79,3.89,3.89,0,0,0,1.87-.4,2.14,2.14,0,0,0,1-1.16l2,.85q-1.29,2.66-4.93,2.66a5.63,5.63,0,0,1-4.23-1.58,6.09,6.09,0,0,1-1.52-4.38,6.22,6.22,0,0,1,1.46-4.39,5.37,5.37,0,0,1,4.13-1.57,5,5,0,0,1,3.92,1.54,5.82,5.82,0,0,1,1.4,4.07A8.53,8.53,0,0,1,117.3,140.12ZM109.93,136a3.7,3.7,0,0,0-1,2.27h6.19a3.81,3.81,0,0,0-1-2.25,2.77,2.77,0,0,0-2.05-.8A3,3,0,0,0,109.93,136Z" transform="translate(-0.67 -3.99)"/><path class="cls-6" d="M121.52,144.56a4.27,4.27,0,0,1-2-1.81l1.66-1.42a2.8,2.8,0,0,0,1.35,1.44,4.8,4.8,0,0,0,2.2.46,3.51,3.51,0,0,0,1.81-.38,1.11,1.11,0,0,0,.64-1,1,1,0,0,0-.6-.88,7.11,7.11,0,0,0-2.06-.63,8.66,8.66,0,0,1-3.57-1.29,2.7,2.7,0,0,1-1-2.27,3,3,0,0,1,.58-1.75,4,4,0,0,1,1.66-1.31,6.16,6.16,0,0,1,2.58-.49,6.28,6.28,0,0,1,3,.63,4.1,4.1,0,0,1,1.77,2l-1.74,1.28a3,3,0,0,0-1.16-1.47,3.44,3.44,0,0,0-1.89-.47,3.19,3.19,0,0,0-1.71.42,1.18,1.18,0,0,0-.67,1,1.11,1.11,0,0,0,.6,1,7.33,7.33,0,0,0,2.21.66,8,8,0,0,1,3.44,1.24,2.69,2.69,0,0,1,1,2.25,2.93,2.93,0,0,1-1.33,2.49,6.08,6.08,0,0,1-3.67,1A7.49,7.49,0,0,1,121.52,144.56Z" transform="translate(-0.67 -3.99)"/><path class="cls-6" d="M147.11,144.17a3.91,3.91,0,0,1-1.34.72,5.28,5.28,0,0,1-1.71.27,3.87,3.87,0,0,1-2.53-.79,3.09,3.09,0,0,1-1-2.47v-6.5h-2.18v-1.93h2.18v-2.68l2.45-.69v3.37h4v1.93h-4v6.09a1.6,1.6,0,0,0,.44,1.23,1.82,1.82,0,0,0,1.23.4,2.69,2.69,0,0,0,1.86-.74Z" transform="translate(-0.67 -3.99)"/><path class="cls-6" d="M158.74,134.34a4.07,4.07,0,0,1,1.2,3.16v7.43h-2.45v-6.65c0-2-.82-3-2.45-3a3.05,3.05,0,0,0-2.2.89,3.68,3.68,0,0,0-.92,2.73v6.05h-2.45V128.31h2.45v7a3.72,3.72,0,0,1,1.53-1.56,4.64,4.64,0,0,1,2.18-.5A4.44,4.44,0,0,1,158.74,134.34Z" transform="translate(-0.67 -3.99)"/><path class="cls-6" d="M170.83,133.47l-.39,2.25a2.91,2.91,0,0,0-1.44-.3,2.66,2.66,0,0,0-1.39.39,2.93,2.93,0,0,0-1.08,1.17,3.88,3.88,0,0,0-.42,1.87v6.08h-2.45V133.47h2.08l.21,2.06a3.58,3.58,0,0,1,3.62-2.29A2.92,2.92,0,0,1,170.83,133.47Z" transform="translate(-0.67 -3.99)"/><path class="cls-6" d="M182.1,134.82a7.07,7.07,0,0,1,0,8.76,6.35,6.35,0,0,1-8.38,0,7.07,7.07,0,0,1,0-8.76,6.35,6.35,0,0,1,8.38,0Zm-6.59,1.39a5.8,5.8,0,0,0,0,6,2.89,2.89,0,0,0,2.4,1,2.93,2.93,0,0,0,2.41-1,5.71,5.71,0,0,0,0-6,2.93,2.93,0,0,0-2.41-1.05A2.89,2.89,0,0,0,175.51,136.21Z" transform="translate(-0.67 -3.99)"/><path class="cls-6" d="M197.14,133.47v11.46H195l-.09-1.86a5,5,0,0,1-7.07,1.07,4,4,0,0,1-1.14-3.13v-7.54h2.46v6.9a3.06,3.06,0,0,0,.59,2.14,2.33,2.33,0,0,0,1.77.63,3.14,3.14,0,0,0,2.3-.88,3.49,3.49,0,0,0,.9-2.6v-6.19Z" transform="translate(-0.67 -3.99)"/><path class="cls-6" d="M210.31,143.92a2.6,2.6,0,0,1,1,2.15,2.93,2.93,0,0,1-.77,2,4.94,4.94,0,0,1-2.11,1.31,9.42,9.42,0,0,1-3,.45,8.23,8.23,0,0,1-4.1-.8,2.41,2.41,0,0,1-1.36-2.13,1.94,1.94,0,0,1,.54-1.36,3,3,0,0,1,1.5-.84,3.22,3.22,0,0,1-1.17-.88,2,2,0,0,1-.43-1.3,2.31,2.31,0,0,1,1.79-2.29,3.3,3.3,0,0,1-1.32-1.3,3.72,3.72,0,0,1-.45-1.84,3.43,3.43,0,0,1,.62-2,4,4,0,0,1,1.75-1.37,6.62,6.62,0,0,1,2.6-.48,6.93,6.93,0,0,1,2.32.37,3.44,3.44,0,0,1,1.15-1.92,3.48,3.48,0,0,1,2.22-.63l.41,1.91a4.17,4.17,0,0,0-1.78.27,1.73,1.73,0,0,0-.93.89,3.68,3.68,0,0,1,1.17,1.29,3.42,3.42,0,0,1,.42,1.69,3.38,3.38,0,0,1-1.37,2.82,5.7,5.7,0,0,1-3.61,1.06,8,8,0,0,1-1.9-.21,1.54,1.54,0,0,0-.84.45,1.21,1.21,0,0,0-.26.81,1,1,0,0,0,.38.81,1.63,1.63,0,0,0,1,.29h3.83A4.17,4.17,0,0,1,210.31,143.92Zm-2.08,3.62c.62-.32.94-.72.94-1.19a1,1,0,0,0-.46-.87,3,3,0,0,0-1.54-.3h-3.09a3,3,0,0,0-1.55.32,1,1,0,0,0-.51.9,1.33,1.33,0,0,0,.9,1.2,6.7,6.7,0,0,0,2.7.42A5.84,5.84,0,0,0,208.23,147.54Zm-4.63-12a2.06,2.06,0,0,0,0,3.11,2.87,2.87,0,0,0,3.54,0,2,2,0,0,0,.7-1.57,1.91,1.91,0,0,0-.7-1.55,2.64,2.64,0,0,0-1.78-.6A2.58,2.58,0,0,0,203.6,135.57Z" transform="translate(-0.67 -3.99)"/><path class="cls-6" d="M222.91,134.34a4.07,4.07,0,0,1,1.2,3.16v7.43h-2.45v-6.65c0-2-.82-3-2.45-3a3.09,3.09,0,0,0-2.21.89,3.67,3.67,0,0,0-.91,2.73v6.05h-2.45V128.31h2.45v7a3.75,3.75,0,0,1,1.52-1.56,4.71,4.71,0,0,1,2.19-.5A4.46,4.46,0,0,1,222.91,134.34Z" transform="translate(-0.67 -3.99)"/><path class="cls-6" d="M236.33,144.56a4.21,4.21,0,0,1-2-1.81l1.65-1.42a2.8,2.8,0,0,0,1.35,1.44,4.8,4.8,0,0,0,2.2.46,3.51,3.51,0,0,0,1.81-.38,1.11,1.11,0,0,0,.64-1,1,1,0,0,0-.59-.88,7.31,7.31,0,0,0-2.07-.63,8.78,8.78,0,0,1-3.57-1.29,2.69,2.69,0,0,1-1-2.27,3,3,0,0,1,.57-1.75,4,4,0,0,1,1.66-1.31,6.22,6.22,0,0,1,2.58-.49,6.35,6.35,0,0,1,3.05.63,4.13,4.13,0,0,1,1.76,2l-1.74,1.28a3,3,0,0,0-1.16-1.47,3.4,3.4,0,0,0-1.89-.47,3.21,3.21,0,0,0-1.71.42,1.18,1.18,0,0,0-.67,1,1.1,1.1,0,0,0,.61,1,7.14,7.14,0,0,0,2.21.66,8.07,8.07,0,0,1,3.44,1.24,2.71,2.71,0,0,1,1,2.25,2.93,2.93,0,0,1-1.33,2.49,6.05,6.05,0,0,1-3.66,1A7.54,7.54,0,0,1,236.33,144.56Z" transform="translate(-0.67 -3.99)"/><path class="cls-6" d="M258.14,143.23l-.16,1.65a3.36,3.36,0,0,1-1.42.28,2.79,2.79,0,0,1-1.57-.39,1.94,1.94,0,0,1-.77-1.31,3.4,3.4,0,0,1-1.56,1.25,5.7,5.7,0,0,1-2.31.45,4.38,4.38,0,0,1-2.71-.78,2.64,2.64,0,0,1-1-2.23,2.83,2.83,0,0,1,1.13-2.27,7.11,7.11,0,0,1,3.34-1.32l2.91-.51v-.62a2.2,2.2,0,0,0-.62-1.66,2.34,2.34,0,0,0-1.71-.6,2.82,2.82,0,0,0-3,2.06l-1.9-1a3.78,3.78,0,0,1,1.68-2.18,5.8,5.8,0,0,1,3.13-.8,5.53,5.53,0,0,1,3.53,1,3.63,3.63,0,0,1,1.3,3v5.18a.91.91,0,0,0,.2.64.86.86,0,0,0,.65.2A3.4,3.4,0,0,0,258.14,143.23Zm-5.09-.52a1.81,1.81,0,0,0,.94-1.59v-1.37l-2.5.5a4.57,4.57,0,0,0-1.76.65,1.28,1.28,0,0,0-.57,1.09,1.16,1.16,0,0,0,.44,1,2.14,2.14,0,0,0,1.28.33A4,4,0,0,0,253.05,142.71Z" transform="translate(-0.67 -3.99)"/><path class="cls-6" d="M263.62,133.47h3.71v1.93h-3.64v9.53h-2.46V135.4h-2.15v-1.93h2.15v-1.65a3.45,3.45,0,0,1,1.06-2.7,4.18,4.18,0,0,1,2.95-1,5,5,0,0,1,1.26.15,2.43,2.43,0,0,1,.9.4l-.46,1.79a2.34,2.34,0,0,0-1.31-.34c-1.34,0-2,.62-2,1.85Z" transform="translate(-0.67 -3.99)"/><path class="cls-6" d="M279.45,140.12h-8.38a3.64,3.64,0,0,0,1.07,2.3,3.2,3.2,0,0,0,2.25.79,3.89,3.89,0,0,0,1.87-.4,2.18,2.18,0,0,0,1-1.16l2,.85q-1.29,2.66-4.93,2.66a5.61,5.61,0,0,1-4.23-1.58,6,6,0,0,1-1.52-4.38,6.18,6.18,0,0,1,1.46-4.39,5.37,5.37,0,0,1,4.13-1.57,5,5,0,0,1,3.92,1.54,5.81,5.81,0,0,1,1.39,4.07A8.53,8.53,0,0,1,279.45,140.12ZM272.08,136a3.7,3.7,0,0,0-1,2.27h6.18a3.75,3.75,0,0,0-1-2.25,2.77,2.77,0,0,0-2-.8A3,3,0,0,0,272.08,136Z" transform="translate(-0.67 -3.99)"/><path class="cls-6" d="M289.79,133.47l-.39,2.25a2.91,2.91,0,0,0-1.44-.3,2.66,2.66,0,0,0-1.39.39,2.93,2.93,0,0,0-1.08,1.17,3.88,3.88,0,0,0-.42,1.87v6.08h-2.45V133.47h2.08l.21,2.06a3.57,3.57,0,0,1,3.62-2.29A2.92,2.92,0,0,1,289.79,133.47Z" transform="translate(-0.67 -3.99)"/><path class="cls-6" d="M300.16,144.56a4.23,4.23,0,0,1-2-1.81l1.65-1.42a2.8,2.8,0,0,0,1.35,1.44,4.83,4.83,0,0,0,2.2.46,3.51,3.51,0,0,0,1.81-.38,1.11,1.11,0,0,0,.64-1,1,1,0,0,0-.59-.88,7.33,7.33,0,0,0-2.06-.63,8.78,8.78,0,0,1-3.58-1.29,2.69,2.69,0,0,1-1-2.27,3,3,0,0,1,.57-1.75,4,4,0,0,1,1.66-1.31,6.22,6.22,0,0,1,2.58-.49,6.32,6.32,0,0,1,3.05.63,4.13,4.13,0,0,1,1.76,2l-1.74,1.28a3,3,0,0,0-1.15-1.47,3.44,3.44,0,0,0-1.89-.47,3.19,3.19,0,0,0-1.71.42,1.19,1.19,0,0,0-.68,1,1.1,1.1,0,0,0,.61,1,7.14,7.14,0,0,0,2.21.66,8,8,0,0,1,3.44,1.24,2.72,2.72,0,0,1,1,2.25,3,3,0,0,1-1.33,2.49,6.11,6.11,0,0,1-3.67,1A7.46,7.46,0,0,1,300.16,144.56Z" transform="translate(-0.67 -3.99)"/><path class="cls-6" d="M321.6,133.47v11.46h-2.18l-.09-1.86a5,5,0,0,1-7.07,1.07,4,4,0,0,1-1.14-3.13v-7.54h2.46v6.9a3.06,3.06,0,0,0,.59,2.14,2.33,2.33,0,0,0,1.77.63,3.16,3.16,0,0,0,2.3-.88,3.49,3.49,0,0,0,.9-2.6v-6.19Z" transform="translate(-0.67 -3.99)"/><path class="cls-6" d="M332.57,133.47l-.39,2.25a2.91,2.91,0,0,0-1.44-.3,2.68,2.68,0,0,0-1.39.39,3,3,0,0,0-1.07,1.17,3.77,3.77,0,0,0-.43,1.87v6.08H325.4V133.47h2.09l.2,2.06a3.58,3.58,0,0,1,3.62-2.29A2.86,2.86,0,0,1,332.57,133.47Z" transform="translate(-0.67 -3.99)"/><path class="cls-6" d="M343.8,143.92a2.62,2.62,0,0,1,1,2.15,2.92,2.92,0,0,1-.76,2,4.94,4.94,0,0,1-2.11,1.31,9.42,9.42,0,0,1-3,.45,8.23,8.23,0,0,1-4.1-.8,2.41,2.41,0,0,1-1.36-2.13,1.94,1.94,0,0,1,.54-1.36,3,3,0,0,1,1.5-.84,3.22,3.22,0,0,1-1.17-.88,2,2,0,0,1-.43-1.3,2.31,2.31,0,0,1,1.78-2.29,3.34,3.34,0,0,1-1.31-1.3,3.72,3.72,0,0,1-.45-1.84,3.43,3.43,0,0,1,.62-2,4,4,0,0,1,1.75-1.37,6.62,6.62,0,0,1,2.6-.48,6.93,6.93,0,0,1,2.32.37,3.44,3.44,0,0,1,1.15-1.92,3.48,3.48,0,0,1,2.22-.63L345,133a4.14,4.14,0,0,0-1.78.27,1.73,1.73,0,0,0-.93.89,3.68,3.68,0,0,1,1.17,1.29,3.42,3.42,0,0,1,.42,1.69,3.38,3.38,0,0,1-1.37,2.82,5.7,5.7,0,0,1-3.61,1.06,8,8,0,0,1-1.9-.21,1.54,1.54,0,0,0-.84.45,1.21,1.21,0,0,0-.26.81,1,1,0,0,0,.38.81,1.63,1.63,0,0,0,1,.29h3.83A4.17,4.17,0,0,1,343.8,143.92Zm-2.08,3.62c.62-.32.94-.72.94-1.19a1,1,0,0,0-.46-.87,3,3,0,0,0-1.54-.3h-3.09a3,3,0,0,0-1.55.32,1,1,0,0,0-.51.9,1.33,1.33,0,0,0,.9,1.2,6.64,6.64,0,0,0,2.69.42A5.86,5.86,0,0,0,341.72,147.54Zm-4.63-12a2.06,2.06,0,0,0,0,3.11,2.87,2.87,0,0,0,3.54,0,2,2,0,0,0,.7-1.57,1.94,1.94,0,0,0-.7-1.55,2.64,2.64,0,0,0-1.78-.6A2.58,2.58,0,0,0,337.09,135.57Z" transform="translate(-0.67 -3.99)"/><path class="cls-6" d="M357.28,140.12h-8.39a3.69,3.69,0,0,0,1.08,2.3,3.19,3.19,0,0,0,2.24.79,3.89,3.89,0,0,0,1.87-.4,2.1,2.1,0,0,0,1-1.16l2,.85q-1.29,2.66-4.93,2.66a5.63,5.63,0,0,1-4.23-1.58,6.09,6.09,0,0,1-1.52-4.38,6.18,6.18,0,0,1,1.47-4.39,5.34,5.34,0,0,1,4.12-1.57,5,5,0,0,1,3.92,1.54,5.82,5.82,0,0,1,1.4,4.07A8.53,8.53,0,0,1,357.28,140.12ZM349.91,136a3.76,3.76,0,0,0-1,2.27h6.19a3.81,3.81,0,0,0-1-2.25,2.76,2.76,0,0,0-2.05-.8A3,3,0,0,0,349.91,136Z" transform="translate(-0.67 -3.99)"/><path class="cls-6" d="M367.61,133.47l-.39,2.25a2.91,2.91,0,0,0-1.44-.3,2.68,2.68,0,0,0-1.39.39,3,3,0,0,0-1.07,1.17,3.77,3.77,0,0,0-.43,1.87v6.08h-2.45V133.47h2.08l.21,2.06a3.58,3.58,0,0,1,3.62-2.29A2.86,2.86,0,0,1,367.61,133.47Z" transform="translate(-0.67 -3.99)"/><path class="cls-6" d="M375.22,146.28a6.66,6.66,0,0,1-1.72,2.77,3.77,3.77,0,0,1-2.52.8,5.1,5.1,0,0,1-1.55-.21,3.1,3.1,0,0,1-1.15-.7l.71-1.88a2.31,2.31,0,0,0,1.88.82,1.83,1.83,0,0,0,1.15-.35,2.86,2.86,0,0,0,.84-1.3l.5-1.23-1.19-2.85-3.57-8.68h2.75l2.52,7.2.66,2.15.78-2.36,2.39-7h2.54Z" transform="translate(-0.67 -3.99)"/></g></svg>